<?xml version="1.0" encoding="UTF-8"?>
<svg width="18px" height="18px" viewBox="0 0 18 18" version="1.1" xmlns="http://www.w3.org/2000/svg" xmlns:xlink="http://www.w3.org/1999/xlink">
    <title>clock_submitted</title>
    <g id="Mondelez_BOZP_2026" stroke="none" stroke-width="1" fill="none" fill-rule="evenodd">
        <g id="Mondelez_UI_items" transform="translate(-1090, -549)" fill="#EC9621">
            <g id="content" transform="translate(470, 248)">
                <g id="list" transform="translate(0, 152)">
                    <g transform="translate(0, 54)" id="permits">
                        <g transform="translate(0, 84)">
                            <path d="M628.950706,11.0925604 L630.610361,11.5305486 C632.657767,12.0715341 634.354303,12.9815097 635.768748,14.5684671 C638.408247,17.5283877 638.770082,21.9892681 636.510359,25.312179 C634.835753,27.7741129 630.767854,29.039079 627.855235,28.9990801 C625.730079,28.9690809 623.727529,28.1211036 622.396814,26.5501458 C619.977606,23.6952223 619.222039,19.7693276 620.908607,16.3774186 C622.361927,13.455497 626.4378,10.4285782 628.950706,11.0925604 Z M628.070541,12.2085304 C624.729302,12.7735153 621.533595,15.8984315 621.230571,19.3373392 L622.594179,19.6163317 C622.809485,19.6603306 623.045725,20.167317 622.951029,20.3633117 C622.861318,20.5483067 622.502474,20.7603011 622.299129,20.7343018 L621.177741,20.5913056 C621.516649,24.4072033 623.761419,27.6921151 627.860219,27.8591107 L627.722662,26.8731371 C627.68279,26.5901447 627.810379,26.2501538 628.101442,26.130157 C628.301796,26.0471593 628.782249,26.2871528 628.827105,26.5201466 L629.072315,27.7861126 C633.182079,27.0851314 636.295053,25.6931688 636.801422,21.1482907 L635.223504,21.2202887 C634.996236,21.2312884 634.62244,20.948296 634.592536,20.7203021 C634.506812,20.0523201 635.62521,19.9253235 636.825345,19.9663224 C636.643929,16.885405 634.605494,14.1204791 631.660978,13.0795071 C630.874511,12.8005145 630.081066,12.5945201 629.321512,12.4005253 L629.325499,13.5274951 C629.326496,13.7384894 628.859002,14.0974798 628.666621,14.0204818 C628.497167,13.9524837 628.229031,13.6384921 628.207101,13.4464972 L628.070541,12.2085304 Z M632.371079,16.3076942 C632.531398,16.0682343 633.201633,16.0498666 633.394088,16.2097334 C634.301624,16.9628076 631.727682,19.5148926 630.620275,21.2373714 L629.191171,23.4591785 C629.034029,23.7037406 628.476089,24.0415015 628.194999,24.0853798 C627.882835,24.1340201 627.281107,23.8445593 627.037449,23.5833303 C626.149335,22.6302526 625.378106,21.8707157 624.290122,21.0104967 C623.967364,20.7550501 623.759019,20.3336142 623.882613,20.0914332 C624.669733,18.5492296 627.108781,22.0295619 627.980298,22.4404534 C628.090827,22.4924951 628.350728,22.3108593 628.419941,22.207116 Z" id="clock_submitted"></path>
                        </g>
                    </g>
                </g>
            </g>
        </g>
    </g>
</svg>