<?xml version="1.0" encoding="utf-8" ?>
<svg xmlns="http://www.w3.org/2000/svg" xmlns:xlink="http://www.w3.org/1999/xlink" width="1920" height="63">
	<path fill="#FEFFFD" d="M1920 4.1623163L1920 63L0 63L0 2.707608L9.0489998 3.4780569L44.597 4.2453527L80.436996 5.3532014L126.483 6.3685546C149.328 6.8730779 171.431 6.4841743 194.578 6.3727589L388.35001 5.4404421L410.57999 4.3178778L430.43399 3.1827006L455.41199 2.1200485C464.85999 1.7185322 474.14099 1.8667358 483.633 2.1494792L520.40002 3.2426126L555.63501 4.2611189L603.44299 5.3290262C623.00098 5.7652287 641.76599 5.4078584 661.60498 5.314311L858.34601 4.3840966L881.58301 3.2657366L902.41699 2.1494792L925.43903 1.0584476L956.61798 1.109951L994.58698 2.1547346L1031.4659 3.258379L1087.34 4.3420529L1127.6541 4.2358928L1328.338 3.3340576L1352.58 2.2104423L1373.411 1.1131043L1395.4611 0L1430.631 0.070423029L1478.5551 1.0994402L1515.494 2.207289L1577.626 3.2236931L1600.4091 3.2058246L1701.41 2.1726031L1735.703 2.1326616L1798.479 3.1511679L1823.595 4.2632213L1850.4041 5.4477997L1874.949 6.0879135L1920 4.1623163Z" fill-rule="evenodd"/>
</svg>
