<?xml version="1.0" encoding="utf-8" ?>
<svg xmlns="http://www.w3.org/2000/svg" xmlns:xlink="http://www.w3.org/1999/xlink" width="1921" height="159">
	<path fill="#4F2170" d="M1919.999 3.0595825L1919.999 155.23677L1900.9957 154.43082L1887.8754 153.50674L1762.1865 153.29549L1707.9473 155.5231L1482.7672 152.82394C1467.6749 152.64273 1454.2087 152.50656 1439.1854 153.19437L1420.1971 154.06339L1293.4268 154.07841L1248.2529 155.97462L1191.245 156.30702L1005.6037 154.10243L973.45715 153.3916L949.4184 155.0896L849.61035 155.01451L773.59912 156.85266L675.60315 156.95378L531.82355 155.20172C522.15546 155.08359 513.17804 153.59584 503.72189 154.40779C480.74863 156.3791 458.89578 156.46721 435.72958 156.42116L341.90549 156.23694L307.2262 158L193.40228 157.71066L109.02036 157.02286L30.029673 155.47905C19.610991 155.27481 9.7880039 158.26331 0 155.70432L0 3.0595825L25.752855 3.4440327L170.42302 6.3724613L259.85437 5.4734087L327.85965 5.5685201C358.26712 5.6105695 387.39825 5.5234675 417.78674 3.8314862C438.75806 2.6651206 458.8588 1.4587079 479.72614 2.0664196L498.87936 2.6240726L651.65436 5.2391343L799.33099 4.4602222C831.16278 4.2930264 861.68921 4.4732375 893.41101 2.6080537C913.3338 1.4366822 932.54999 0.4295029 952.48083 1.0101829L973.63007 1.626905L1118.4312 4.1939106L1282.8672 3.4710643L1362.3357 1.6529354L1433.7092 0.33739504L1474.3304 1.0322086L1596.2083 3.1286633L1773.4408 2.458879L1855.9867 0L1870.1105 0.36042202L1879.0719 0.64175141L1892.1412 1.6979882L1919.999 3.0595825Z" fill-rule="evenodd"/>
</svg>
